<svg width="80" height="80" viewBox="0 0 100 100" fill="none" xmlns="http://www.w3.org/2000/svg">
<path d="M94.375 59.9583L50 92.2083L5.62501 59.9583C5.03011 59.5208 4.58884 58.9063 4.36432 58.2028C4.1398 57.4993 4.14354 56.7429 4.37501 56.0416L9.45834 40.2916L19.625 8.99996C19.7236 8.74499 19.8806 8.51667 20.0833 8.33329C20.4135 8.03172 20.8445 7.8645 21.2917 7.8645C21.7388 7.8645 22.1698 8.03172 22.5 8.33329C22.7141 8.54023 22.8719 8.79837 22.9583 9.08329L33.125 40.2916H66.875L77.0417 8.99996C77.1403 8.74499 77.2973 8.51667 77.5 8.33329C77.8302 8.03172 78.2612 7.8645 78.7083 7.8645C79.1555 7.8645 79.5865 8.03172 79.9167 8.33329C80.1308 8.54023 80.2885 8.79837 80.375 9.08329L90.5417 40.375L95.8333 56.0416C96.0439 56.7645 96.0157 57.536 95.7529 58.2415C95.4902 58.9471 95.007 59.5491 94.375 59.9583V59.9583Z" stroke="black" stroke-width="2" stroke-linecap="round" stroke-linejoin="round"/>
</svg>
